# xmcd CD database file
#
# Track frame offsets:
#	150
#	20867
#	39000
#	58863
#	75851
#	95458
#	113581
#	132336
#	145381
#	161016
#	178066
#	196772
#	217471
#	234751
#	263579
#
# Disc length: 4617 seconds
#
# Revision: 2
# Processed by: cddbd v1.5.1PL2 Copyright (c) Steve Scherf et al.
# Submitted via: CDex 1.51
#
DISCID=c812070f
DTITLE=nada surf - The Proximity Effect
DYEAR=1998
DGENRE=Pop
TTITLE0=Hyperspace
TTITLE1=Amateur
TTITLE2=80 windows
TTITLE3=Mother's day
TTITLE4=Troublemaker
TTITLE5=Bacardi
TTITLE6=Bad Best Friend
TTITLE7=Dispossession
TTITLE8=The Voices
TTITLE9=Firecracker
TTITLE10=Slow Down
TTITLE11=Robot
TTITLE12=Slient Fighting
TTITLE13=Spooky
TTITLE14=Data Track
EXTD=YEAR: 1998
EXTT0=
EXTT1=
EXTT2=
EXTT3=
EXTT4=
EXTT5=
EXTT6=
EXTT7=
EXTT8=
EXTT9=
EXTT10=
EXTT11=
EXTT12=
EXTT13=
EXTT14=
PLAYORDER=
